Coordinates
version=1
nRows=17
nColumns=40
inDegrees=yes

Units are S.I. units (second, meters, Newtons, ...)
Angles are in degrees.

endheader
time	pelvis_tilt	pelvis_list	pelvis_rotation	pelvis_tx	pelvis_ty	pelvis_tz	hip_flexion_r	hip_adduction_r	hip_rotation_r	knee_angle_r	knee_angle_r_beta	ankle_angle_r	subtalar_angle_r	mtp_angle_r	hip_flexion_l	hip_adduction_l	hip_rotation_l	knee_angle_l	knee_angle_l_beta	ankle_angle_l	subtalar_angle_l	mtp_angle_l	lumbar_extension	lumbar_bending	lumbar_rotation	arm_flex_r	arm_add_r	arm_rot_r	elbow_flex_r	pro_sup_r	wrist_flex_r	wrist_dev_r	arm_flex_l	arm_add_l	arm_rot_l	elbow_flex_l	pro_sup_l	wrist_flex_l	wrist_dev_l
     46.35750000	     -3.40576563	     -4.21471374	      4.79794298	      0.94223373	      0.93494449	      0.46586177	      6.26449110	      4.75503340	    -20.42728515	     10.53967414	     10.53967414	      9.95717195	     -0.66212682	     -3.58439459	     33.56701092	     -9.75020748	     -1.36252617	     45.47759451	     45.47759451	     10.27051950	    -16.70524940	     12.38529824	     -8.12207124	      6.12384896	      4.56630624	     29.97623973	    -16.38064000	    -11.68595750	     48.45155780	     45.96444205	      0.00000000	      0.00000000	     -0.35967244	     -6.11345230	      0.06889354	     23.82518014	     45.30650708	      0.00000000	      0.00000000
     46.36985714	     -3.49224276	     -4.32198482	      4.90868111	      0.94112314	      0.93436733	      0.46602275	      5.50566529	      5.03429959	    -20.80822833	      9.71513775	      9.71513775	      9.95430916	      0.14608064	     -4.44248585	     33.58210048	     -9.45046835	     -1.39196954	     41.01489580	     41.01489580	      9.60611292	    -16.18906589	     10.33911226	     -8.21846379	      6.26850231	      4.58253197	     30.84651056	    -16.52627801	    -11.44936050	     52.00721063	     45.81349315	      0.00000000	      0.00000000	     -1.78678158	     -6.11276617	      1.42462034	     24.02631049	     45.03041548	      0.00000000	      0.00000000
     46.38221429	     -3.64968417	     -4.38061180	      4.95037274	      0.94001616	      0.93347530	      0.46617074	      4.96741547	      5.25074625	    -20.73154294	      9.16855253	      9.16855253	     10.06380167	      0.21011771	     -5.12244952	     33.51634396	     -9.10079790	     -1.50303266	     36.42315190	     36.42315190	      8.92292452	    -15.41073210	      8.36545037	     -8.16733328	      6.31814092	      4.86522578	     31.97117521	    -16.76084980	    -11.56270132	     54.05787708	     45.72829279	      0.00000000	      0.00000000	     -3.10814550	     -6.26601027	      3.93218114	     24.38116926	     44.60046381	      0.00000000	      0.00000000
     46.39457143	     -3.89225622	     -4.48959770	      5.00270185	      0.93887207	      0.93225227	      0.46616100	      4.63945469	      5.46127854	    -20.67587676	      8.86727200	      8.86727200	     10.43587576	      0.27588877	     -5.27078041	     33.62962412	     -8.77285828	     -1.56740963	     32.20504229	     32.20504229	      9.24306487	    -13.92496222	      8.87082374	     -7.94750008	      6.41623033	      5.04436857	     33.46311092	    -16.89157121	    -11.63878920	     54.92492185	     45.70736448	      0.00000000	      0.00000000	     -4.12256713	     -6.01721760	      4.06313779	     24.07394520	     44.56496365	      0.00000000	      0.00000000
     46.40692857	     -3.99317408	     -4.57021881	      5.04849719	      0.93793506	      0.93114733	      0.46605219	      4.10585538	      5.65415001	    -20.64731851	      8.50146251	      8.50146251	     10.82407640	      0.45287557	     -5.47010999	     33.46711440	     -8.43133135	     -1.69148238	     28.04992395	     28.04992395	      9.45924974	    -12.23458628	      9.36392537	     -7.93280430	      6.49603852	      4.95129168	     34.89822177	    -16.70901964	    -11.68155383	     56.08910103	     45.67357247	      0.00000000	      0.00000000	     -5.26375619	     -5.90352087	      4.19430444	     23.78849557	     44.52810045	      0.00000000	      0.00000000
     46.41928571	     -4.05620475	     -4.73371676	      5.13500386	      0.93707742	      0.92991705	      0.46581543	      3.55188817	      5.92411080	    -20.70045190	      8.17315433	      8.17315433	     11.20928996	      0.68144921	     -5.74683534	     33.33420704	     -8.17214621	     -1.83125903	     24.31862284	     24.31862284	      9.58682331	    -10.42163040	      9.81132178	     -7.96124973	      6.69205436	      4.77495576	     36.25621409	    -16.47843764	    -11.73126599	     57.45236703	     45.63262753	      0.00000000	      0.00000000	     -6.41204532	     -5.76381567	      4.32922641	     23.66731084	     44.49228541	      0.00000000	      0.00000000
     46.43164286	     -4.11302502	     -4.86609256	      5.22399717	      0.93641065	      0.92861913	      0.46543709	      3.02990914	      6.13616316	    -20.71182837	      7.95801208	      7.95801208	     11.62813352	      0.81598202	     -6.03480983	     33.21174567	     -7.89006108	     -2.08906002	     21.06009496	     21.06009496	      9.66952730	     -8.63900336	     10.27460252	     -7.91409166	      6.84827682	      4.66373681	     37.42188749	    -16.31680688	    -11.78060820	     58.74340271	     45.59375638	      0.00000000	      0.00000000	     -7.45976197	     -5.66199936	      4.42839565	     23.63121809	     44.46594972	      0.00000000	      0.00000000
     46.44400000	     -4.28058370	     -5.16109160	      5.34757903	      0.93565948	      0.92704521	      0.46496720	      2.72445288	      6.48423735	    -20.73946561	      7.88222074	      7.88222074	     12.05324528	      0.80171106	     -6.25315325	     33.44974518	     -7.73626706	     -2.22325163	     18.62039227	     18.62039227	      9.63019182	     -7.27184179	     10.68875600	     -7.75184995	      7.20530675	      4.73008682	     38.51142242	    -16.41950292	    -11.85551183	     59.58025897	     45.57257767	      0.00000000	      0.00000000	     -8.22807211	     -5.48217544	      4.47578502	     23.51503703	     44.44904271	      0.00000000	      0.00000000
     46.45635714	     -4.24199562	     -5.13404249	      5.45784465	      0.93530038	      0.92606695	      0.46435414	      2.11023343	      6.50489640	    -20.67445008	      7.76187767	      7.76187767	     12.50351152	      0.80151639	     -6.44535855	     33.25552823	     -7.34471920	     -2.81149586	     16.51046950	     16.51046950	      9.49883012	     -5.91003726	     11.15195690	     -7.80747425	      7.15778943	      4.49220417	     39.33815862	    -16.06323290	    -11.86808723	     60.80942975	     45.53352031	      0.00000000	      0.00000000	     -9.06660129	     -5.44639816	      4.52773034	     23.39614033	     44.43602637	      0.00000000	      0.00000000
     46.46871429	     -4.36057744	     -5.33268379	      5.59256311	      0.93489350	      0.92471374	      0.46365127	      1.75270530	      6.73118686	    -20.65918410	      7.74909289	      7.74909289	     12.91408312	      0.74770532	     -6.57494129	     33.59967930	     -7.14156440	     -3.13807949	     15.55095184	     15.55095184	      9.32795870	     -5.34748060	     11.34505495	     -7.64899452	      7.37288718	      4.52516600	     40.21469722	    -16.23300486	    -11.96652479	     61.47212516	     45.51867724	      0.00000000	      0.00000000	     -9.68099607	     -5.36561627	      4.54312486	     23.25082061	     44.42728464	      0.00000000	      0.00000000
     46.48107143	     -4.35730290	     -5.28507837	      5.72196590	      0.93474768	      0.92386043	      0.46278278	      1.20927486	      6.69552334	    -20.58530403	      7.72241820	      7.72241820	     13.34171189	      0.68321217	     -6.62748887	     33.56652768	     -6.75613784	     -3.79414969	     14.85192124	     14.85192124	      9.01702723	     -4.86576274	     11.48835915	     -7.62450058	      7.30685481	      4.30252465	     40.76690722	    -15.88741832	    -11.98559608	     62.44179109	     45.48813643	      0.00000000	      0.00000000	    -10.16629122	     -5.31331771	      4.57205111	     23.08720496	     44.42301743	      0.00000000	      0.00000000
     46.49342857	     -4.35176378	     -5.30061922	      5.85974235	      0.93488413	      0.92298321	      0.46186435	      0.65418293	      6.72205717	    -20.55876150	      7.71173349	      7.71173349	     13.80704418	      0.66044447	     -6.48105650	     33.67960804	     -6.48584660	     -4.40105287	     15.02101296	     15.02101296	      8.67660861	     -4.83582725	     11.12269953	     -7.58891680	      7.31393728	      4.00043099	     40.98984998	    -15.47316244	    -12.10683046	     63.92239487	     45.44297697	      0.00000000	      0.00000000	    -10.63190963	     -5.30796444	      4.58622965	     22.91974296	     44.43543987	      0.00000000	      0.00000000
     46.50578571	     -4.39716999	     -5.30072910	      5.92759454	      0.93518945	      0.92213064	      0.46091899	      0.13987170	      6.71260826	    -20.50507644	      7.71094593	      7.71094593	     14.38397954	      0.81729763	     -5.84543970	     33.77604646	     -6.24322905	     -4.91306789	     15.59611480	     15.59611480	      7.84484336	     -5.41174474	      9.90939378	     -7.47519663	      7.27354176	      4.24370882	     40.60796551	    -15.64601857	    -12.54544774	     65.75086670	     45.39889386	      0.00000000	      0.00000000	    -10.68430367	     -5.36006241	      4.56734743	     22.77112264	     44.50064654	      0.00000000	      0.00000000
     46.51814286	     -4.45429679	     -5.18636709	      5.93716891	      0.93578486	      0.92133205	      0.45984252	     -0.40495480	      6.56877670	    -20.40942222	      7.68071117	      7.68071117	     14.76089325	      0.86021221	     -5.83470295	     33.71493753	     -5.93753189	     -5.40203033	     16.43202332	     16.43202332	      7.42477180	     -6.08233218	      9.79879131	     -7.28192819	      7.10440771	      4.28060717	     40.75678940	    -15.66156535	    -12.59571908	     65.99234945	     45.39372455	      0.00000000	      0.00000000	    -10.87534427	     -5.41895111	      4.56405701	     22.63069252	     44.50549777	      0.00000000	      0.00000000
     46.53050000	     -4.47842472	     -5.24448075	      5.94775169	      0.93660936	      0.92041046	      0.45878675	     -0.99306712	      6.61357548	    -20.39930411	      7.63709670	      7.63709670	     15.15460151	      1.08201272	     -5.63673091	     33.72183676	     -5.83091588	     -5.53198915	     17.75496437	     17.75496437	      6.85920780	     -7.13553124	      9.40173307	     -7.09634631	      7.11933920	      4.18781083	     40.64672342	    -15.50478427	    -12.67734889	     66.56198972	     45.37776200	      0.00000000	      0.00000000	    -10.93355220	     -5.47779534	      4.55234303	     22.46737546	     44.52314506	      0.00000000	      0.00000000
     46.54285714	     -4.53044212	     -5.17483759	      5.84920619	      0.93779679	      0.91959531	      0.45764661	     -1.57428849	      6.45939451	    -20.57837244	      7.69982847	      7.69982847	     16.09748276	      1.95060263	     -4.06251924	     33.33029146	     -5.57939702	     -5.49666108	     18.56887696	     18.56887696	      5.46045126	     -8.67017348	      7.66334577	     -6.90454128	      6.99978723	      4.66108202	     39.59102310	    -15.77187818	    -13.23999445	     68.68715158	     45.33112062	      0.00000000	      0.00000000	    -10.63996683	     -5.53994269	      4.36576267	     22.11277788	     44.66534218	      0.00000000	      0.00000000
     46.55521429	     -4.59253795	     -5.12515940	      5.68812600	      0.93911381	      0.91869004	      0.45658505	     -2.16034519	      6.35048508	    -20.40660465	      7.67623381	      7.67623381	     16.41262410	      2.16750781	     -3.96677456	     33.04047545	     -5.47358827	     -5.63946363	     19.74277090	     19.74277090	      4.95688892	     -9.45478633	      7.62404609	     -6.64501442	      6.90233396	      4.63187680	     39.26279807	    -15.63216767	    -13.23329739	     68.78923070	     45.32720470	      0.00000000	      0.00000000	    -10.60515916	     -5.65925747	      4.32396020	     22.08318167	     44.68653241	      0.00000000	      0.00000000
